<svg xmlns="http://www.w3.org/2000/svg" width="142" height="142" viewBox="0 0 142 142">
  <g id="f1" transform="translate(4090.577 16896)">
    <g id="Ellipse_325" data-name="Ellipse 325" transform="translate(-4090.577 -16896)" fill="none" stroke="#2d394f" stroke-width="3">
      <circle cx="71" cy="71" r="71" stroke="none"/>
      <circle cx="71" cy="71" r="69.5" fill="none"/>
    </g>
    <g id="f1-2" data-name="f1" transform="translate(-4061.181 -16862.031)">
      <path id="Path_533" data-name="Path 533" d="M150.387,79.176a6.185,6.185,0,0,1-4.374-10.559h0a6.185,6.185,0,1,1,4.374,10.559Zm0-10.722a4.506,4.506,0,0,0-3.208,1.328h0a4.537,4.537,0,1,0,3.208-1.328ZM146.6,69.2h0Z" transform="translate(-101.878 -47.283)" fill="#21bf73"/>
      <path id="Path_534" data-name="Path 534" d="M74.2,5.209c0-.371,0-.744-.011-1.119,0-.207-.012-.415-.02-.622-.009-.259-.017-.516-.031-.777-.026-.5-.058-1-.1-1.5a.824.824,0,0,0-.753-.754c-.5-.042-1-.074-1.5-.1-.247-.013-.491-.02-.737-.029C70.819.3,70.6.3,70.376.291c-.36-.007-.718-.01-1.075-.01h-.187A41.82,41.82,0,0,0,48.34,5.938c-.008,0-.012.014-.021.019A76.421,76.421,0,0,0,31.732,18.965q-1.095,1.095-2.151,2.213a.642.642,0,0,0-.08-.01l-11.336.862a.826.826,0,0,0-.437.166L.306,35.452a.825.825,0,0,0,.425,1.478l16.657,1.5,6.7,6.694a9.553,9.553,0,0,0-6.6,2.97,10.821,10.821,0,0,0-2.122,2.967c-.727,1.541-2.345,5.559-4.059,9.813l-.825,2.048A.825.825,0,0,0,11.55,64l2.118-.853c4.222-1.7,8.209-3.306,9.748-4.032a10.835,10.835,0,0,0,2.961-2.12,10.06,10.06,0,0,0,2.9-5.378,7.256,7.256,0,0,0,.09-1.207l6.527,6.524,1.5,16.659a.824.824,0,0,0,.594.718.833.833,0,0,0,.228.032.824.824,0,0,0,.656-.326L52.128,56.594a.823.823,0,0,0,.166-.436l.845-11.114q1.2-1.127,2.374-2.3a76.462,76.462,0,0,0,13.01-16.59c0-.007.012-.011.016-.018A41.805,41.805,0,0,0,74.2,5.339C74.2,5.3,74.2,5.253,74.2,5.209ZM71.257,15.222c-.026.1-.053.192-.079.289A43.756,43.756,0,0,1,67.6,24.349L50.128,6.877A43.765,43.765,0,0,1,58.954,3.3l.312-.086c.2-.055.406-.106.608-.156A40.324,40.324,0,0,1,72.446,2.032a40.3,40.3,0,0,1-1.027,12.56C71.366,14.8,71.314,15.011,71.257,15.222ZM18.533,23.655l9.434-.717q-2.551,2.826-4.805,5.734l-.008.007c-.064.082-.123.165-.186.247-.483.627-.958,1.254-1.418,1.883-.092.127-.18.253-.271.379-.434.6-.863,1.2-1.273,1.8-.172.251-.331.5-.5.749-.319.477-.642.954-.945,1.431-.348.544-.674,1.084-1,1.624L3,35.477Zm1.656,12.036c.2-.316.418-.634.631-.952s.436-.652.661-.978q.417-.6.851-1.213c.155-.218.313-.435.471-.651.341-.469.686-.938,1.043-1.408l.043-.055L44.044,50.589l-.069.054c-.461.35-.921.687-1.381,1.023q-.338.246-.675.488-.6.428-1.194.838c-.336.232-.673.458-1.009.681-.307.205-.614.412-.92.61-.661.427-1.323.844-1.981,1.241L18.953,37.664C19.348,37.008,19.764,36.35,20.189,35.691ZM27.646,51.35a8.4,8.4,0,0,1-2.433,4.477,9.186,9.186,0,0,1-2.505,1.8c-1.489.7-5.64,2.374-9.655,3.991l-.322.129.1-.256c1.628-4.042,3.311-8.222,4.015-9.714a9.158,9.158,0,0,1,1.8-2.51,7.975,7.975,0,0,1,5.379-2.518,3.7,3.7,0,0,1,2.687,1.015A4.007,4.007,0,0,1,27.646,51.35Zm23.022,4.44L38.845,71.325,37.551,57c.583-.35,1.168-.7,1.756-1.081.464-.3.929-.61,1.393-.92.263-.176.524-.343.788-.524.585-.4,1.168-.817,1.752-1.239.145-.1.289-.2.435-.31.607-.443,1.211-.9,1.816-1.366.1-.078.2-.152.307-.231,0,0,0-.007.008-.01,1.871-1.451,3.728-3,5.554-4.639Zm3.679-14.211a102.273,102.273,0,0,1-8.986,7.995L24.9,29.116a102.152,102.152,0,0,1,8-8.986A76.016,76.016,0,0,1,48.627,7.708L66.769,25.851A76.016,76.016,0,0,1,54.347,41.578Z" transform="translate(0.02 -0.281)" fill="#21bf73"/>
    </g>
  </g>
</svg>
