<svg xmlns="http://www.w3.org/2000/svg" width="142" height="142" viewBox="0 0 142 142">
  <g id="f2" transform="translate(4019.577 17089)">
    <g id="f2-2" data-name="f2" transform="translate(-3985.069 -17049.854)">
      <path id="Path_535" data-name="Path 535" d="M6.806,49.458c.034-.011.069-.018.1-.032a1.575,1.575,0,0,0,.207-.11c.024-.014.049-.024.072-.039a1.634,1.634,0,0,0,.247-.2L13.8,42.7a1.622,1.622,0,1,0-2.293-2.293L8.223,43.7a28.615,28.615,0,0,1,54.286-7.745,1.622,1.622,0,1,0,2.945-1.359,31.857,31.857,0,0,0-60.375,8.23l-2.068-3.4A1.622,1.622,0,0,0,.24,41.112L4.9,48.773c.006.01.015.017.021.027a1.571,1.571,0,0,0,.169.218c.015.016.027.036.043.052a1.679,1.679,0,0,0,.263.215c.025.017.054.028.079.043a1.62,1.62,0,0,0,.225.112c.037.015.076.024.114.036a1.557,1.557,0,0,0,.221.052c.019,0,.036.011.056.013a1.723,1.723,0,0,0,.193.011,1.618,1.618,0,0,0,.32-.032A1.481,1.481,0,0,0,6.806,49.458Z" transform="translate(-0.004 -16.076)" fill="#21bf73"/>
      <path id="Path_536" data-name="Path 536" d="M89.985,129.27l-4.661-7.661c-.006-.01-.015-.018-.021-.028a1.568,1.568,0,0,0-.166-.213c-.016-.018-.029-.039-.046-.056a1.629,1.629,0,0,0-.263-.214c-.026-.017-.054-.028-.081-.044a1.606,1.606,0,0,0-.225-.111c-.038-.015-.078-.024-.117-.036a1.606,1.606,0,0,0-.216-.051c-.02,0-.038-.011-.058-.014s-.056,0-.084,0-.072-.011-.109-.011-.064.008-.1.01c-.05,0-.1.007-.15.015a1.579,1.579,0,0,0-.2.045c-.045.013-.089.024-.133.041a1.62,1.62,0,0,0-.2.1c-.034.019-.07.035-.1.056a1.628,1.628,0,0,0-.268.214l-6.371,6.371a1.622,1.622,0,0,0,2.293,2.293L82,126.683a28.615,28.615,0,0,1-54.657,6.905,1.622,1.622,0,0,0-2.987,1.264,31.857,31.857,0,0,0,60.788-7.294l2.068,3.4a1.623,1.623,0,1,0,2.772-1.688Z" transform="translate(-17.237 -90.599)" fill="#21bf73"/>
    </g>
    <g id="Ellipse_327" data-name="Ellipse 327" transform="translate(-4019.577 -17089)" fill="none" stroke="#2d394f" stroke-width="3">
      <circle cx="71" cy="71" r="71" stroke="none"/>
      <circle cx="71" cy="71" r="69.5" fill="none"/>
    </g>
  </g>
</svg>
