<svg xmlns="http://www.w3.org/2000/svg" width="142" height="142" viewBox="0 0 142 142">
  <g id="f3" transform="translate(4283.577 16896)">
    <g id="f3-2" data-name="f3" transform="translate(-4250.185 -16851.277)">
      <path id="Path_537" data-name="Path 537" d="M80.132,165.107H54.33a.836.836,0,0,1,0-1.672h25.8a.836.836,0,0,1,0,1.672Z" transform="translate(-37.584 -126.158)" fill="#21bf73"/>
      <path id="Path_538" data-name="Path 538" d="M69.233,185.76H54.33a.836.836,0,0,1,0-1.671h14.9a.836.836,0,1,1,0,1.671Z" transform="translate(-37.584 -140.669)" fill="#21bf73"/>
      <path id="Path_539" data-name="Path 539" d="M124.533,185.76h-7.006a.836.836,0,1,1,0-1.671h7.006a.836.836,0,0,1,0,1.671Z" transform="translate(-81.985 -140.669)" fill="#21bf73"/>
      <path id="Path_540" data-name="Path 540" d="M193.86,171.249H181.182a.835.835,0,0,1-.836-.836v-6.143a.835.835,0,0,1,.836-.836H193.86a.835.835,0,0,1,.836.836v6.143A.836.836,0,0,1,193.86,171.249Zm-11.843-1.672h11.007v-4.471H182.017Z" transform="translate(-126.708 -126.158)" fill="#21bf73"/>
      <path id="Path_541" data-name="Path 541" d="M72.792,47.832H67.921l-.667-7.452a2.512,2.512,0,0,0-2.717-2.271L2.281,43.686A2.5,2.5,0,0,0,.01,46.4L3.383,84.065a2.508,2.508,0,0,0,2.493,2.281c.074,0,.149,0,.224-.01l1.6-.144v2.036a2.427,2.427,0,0,0,2.424,2.424H72.791a2.427,2.427,0,0,0,2.424-2.424V50.257A2.426,2.426,0,0,0,72.792,47.832ZM5.952,84.672a.826.826,0,0,1-.9-.755L1.675,46.254a.833.833,0,0,1,.755-.9l62.255-5.575a.834.834,0,0,1,.9.755l.654,7.3H10.129A2.427,2.427,0,0,0,7.7,50.256V84.514ZM9.375,57.4h64.17V67.406H9.375Zm64.17,30.829a.754.754,0,0,1-.753.753H10.129a.754.754,0,0,1-.753-.753V69.078H73.545Zm-64.17-32.5V50.257a.754.754,0,0,1,.753-.753H72.792a.754.754,0,0,1,.753.753v5.472Z" transform="translate(0 -38.1)" fill="#21bf73"/>
    </g>
    <g id="Ellipse_326" data-name="Ellipse 326" transform="translate(-4283.577 -16896)" fill="none" stroke="#3a455a" stroke-width="3">
      <circle cx="71" cy="71" r="71" stroke="none"/>
      <circle cx="71" cy="71" r="69.5" fill="none"/>
    </g>
  </g>
</svg>
