<svg xmlns="http://www.w3.org/2000/svg" xmlns:xlink="http://www.w3.org/1999/xlink" width="1913" height="730" viewBox="0 0 1913 730">
  <defs>
    <clipPath id="clip-Artboard_1">
      <rect width="1913" height="730"/>
    </clipPath>
  </defs>
  <g id="Artboard_1" data-name="Artboard – 1" clip-path="url(#clip-Artboard_1)">
    <rect width="1913" height="730" fill="#faf8f6"/>
    <path id="sm-hero-bg" d="M0,0H1879.577V730H446.125C199.737,730,0,403.167,0,0Z" transform="translate(1203.763)" fill="#b0eacd" opacity="0.55"/>
    <path id="shape" d="M-625.192,257.116c25-42.664,49.716-84.011,74.858-125.279-10.878,23.275-21.693,46.8-32.634,70.609C-597.193,220.5-611.273,238.626-625.192,257.116Zm-17.069,21.9c35.649-61.253,70.437-119.4,106.43-177.96C-509.113,44.889-481.537-9.893-450.4-63.772q10.677-21.549,22.316-42.328,7.511-15.567,15.725-30.406,6.353-13.542,13.387-26.282,5.718-12.5,12.147-24.092.7-1.565,1.411-3.112,4.691-10.188,9.962-19.6a232.942,232.942,0,0,1,10.863-21.8,198.13,198.13,0,0,1,10.5-21.145,171.241,171.241,0,0,1,10.25-20.686,149.532,149.532,0,0,1,10.052-20.319,131.9,131.9,0,0,1,9.907-20.049,117.377,117.377,0,0,1,9.792-19.831c6.755-17.868,16.331-31.5,29.472-40.1,16.107-10.541,37.226-13.293,64.253-7.538,19.525,4.158,38.446,8.72,56.828,13.561q6.262-4.221,12.579-8.393c32.389-23.932,65.948-46.713,99.674-67.755,111.393-69.5,224.9-120.209,304.349-130.7q4.627-.812,9.11-1.434,6.994-1.392,13.663-2.313,8.138-1.736,15.821-2.772,8.8-1.974,17.045-3.045a170.721,170.721,0,0,1,17.84-3.228,155.467,155.467,0,0,1,18.385-3.355,142.451,142.451,0,0,1,18.781-3.448,131.069,131.069,0,0,1,19.067-3.516q5.319-1.406,10.4-2.327,2.791-1.388,5.533-2.668c17.582-10.87,34.011-18.9,48.865-23.708,22.3-7.213,41.4-7.249,55.451,1.82l-2,3.1c-12.688-8.189-30.456-8.477-52.311-1.408A183.189,183.189,0,0,0,423.226-612c21.357-6.463,39.8-6.6,53.815,1.167l-1.79,3.231c-13.253-7.343-31.378-7.19-53.373-.107q-4.766,1.535-9.752,3.5c15.8-3.011,29.709-2.195,41.05,3.129l-1.57,3.344c-9.589-4.5-21.416-5.594-35.147-3.474a57.449,57.449,0,0,1,16.375,3.632l-1.345,3.44c-8.262-3.229-17.979-4.264-28.965-3.219a60.937,60.937,0,0,1,10.519,2.307l-1.118,3.521a63.541,63.541,0,0,0-19.166-2.758q-.934.611-1.873,1.232,1.2.25,2.367.542l-.894,3.584q-2.856-.713-5.886-1.165-6.4,4.353-12.987,9.169c-30.965,22.645-64.695,52.737-99.239,88.589q9.848-2.836,19.4-5.529l1,3.555q-12.488,3.522-25.489,7.288-13.972,14.7-28.061,30.59c22.676-6.847,44.662-13.6,65.77-20.277l1.115,3.522c-22.9,7.249-46.818,14.573-71.516,22.011q-12.571,14.347-25.134,29.562c37.622-10.6,74.066-21.774,108.8-33.913l1.219,3.487c-36.383,12.713-74.628,24.372-114.118,35.412q-8.216,10.05-16.392,20.441-2.47,3.138-4.933,6.307C236.7-402,286.1-416.315,333.434-434.343l1.315,3.452c-48.9,18.623-99.966,33.285-152.436,45.65q-8.8,11.417-17.516,23.195c62.154-11.078,122.864-26.816,181.952-51.094l1.4,3.417c-60.6,24.9-122.857,40.844-186.533,51.99q-7.047,9.6-14.014,19.421c71.966-7.522,142.332-22.787,212.471-53.619l1.486,3.381c-71.623,31.485-143.438,46.813-216.788,54.243q-5.479,7.778-10.9,15.684c80.52-1.622,158.929-14.445,239.538-52.1l1.563,3.347c-82.083,38.34-161.866,51.089-243.657,52.491q-4.1,6.021-8.157,12.11c88.113,6.381,173.012-2.035,263.6-46.733l1.635,3.313c-92.061,45.426-178.289,53.647-267.578,46.951q-2.891,4.365-5.759,8.763c95.014,16.23,184.926,14.128,285.054-37.809l1.7,3.279C300.2-272.3,208.968-270.5,112.866-287.107q-1.835,2.831-3.661,5.676,4.064,1.108,8.111,2.169c98.348,25.776,189.787,29.948,296.155-27.807l1.763,3.246c-107.451,58.342-199.926,54.062-298.855,28.134q-4.62-1.211-9.26-2.484C18.689-139.594-51.447,21.652-62.178,169.648c-7.017,96.762-33.185,157.663-71.433,192.061-36.814,33.108-84.475,41.361-136.034,33.863,2.337,54.539,3.022,109.76,1.206,164.865l-3.692-.121c1.821-55.264,1.124-110.632-1.233-165.311q-1.271-.2-2.544-.417-10.243-1.729-20.668-4.239c1.13,48.968.855,98.476-1.492,147.9l-3.689-.175c2.358-49.687,2.621-99.44,1.467-148.642q-11.7-2.945-23.556-6.78c.1,44.2-1.009,88.831-3.847,133.416l-3.686-.234c2.86-44.925,3.958-89.885,3.84-134.392q-11.86-3.945-23.807-8.679c-.813,40.141-2.657,80.649-5.969,121.131l-3.682-.3c3.347-40.888,5.192-81.784,5.99-122.295q-11.976-4.844-23.965-10.383c-1.638,36.728-4.169,73.773-7.962,110.811l-3.675-.376c3.839-37.5,6.384-74.978,8.017-112.12q-12.043-5.653-24.026-11.908c-2.422,33.876-5.625,68.047-9.928,102.246l-3.665-.461c4.356-34.615,7.583-69.207,10.012-103.5q-12.176-5.018-24.263-10.628c-3.152,30.629-6.962,61.513-11.688,92.443l-3.652-.558c4.782-31.292,8.624-62.544,11.8-93.538q-12.234-5.755-24.29-12c-3.86,27.818-8.27,55.863-13.447,83.969l-3.633-.669c5.246-28.486,9.705-56.913,13.6-85.112q-5.711-2.992-11.366-6.074-6.583-2.812-13.092-5.745c-4.523,25.006-9.492,50.21-15.082,75.491l-3.607-.8c5.646-25.538,10.66-51,15.219-76.266q-12.5-5.7-24.651-11.754-7.665,33.157-16.5,66.743l-3.57-.947q8.995-33.92,16.667-67.494-12.514-6.285-24.536-12.784-8.575,29.4-18.02,59.208l-3.519-1.121q9.6-30.122,18.217-59.887-5.507-3-10.888-6.011-7.042-3.02-13.864-6.05-9.321,25.407-19.217,51.184l-3.446-1.328q9.963-25.855,19.282-51.361l-2.222-1q-4.686-1.421-9.259-2.83l-.8-.118-.182-.027q-3.953-.581-7.822-1.147-3.65.116-7.229.249-8.313,17.938-16.849,36.114l-3.342-1.572q7.971-16.956,15.733-33.708-2.319.559-4.611,1.128-3.8,1.783-7.537,3.6-3.613,2.646-7.172,5.327-1.713,1.762-3.418,3.534l-.456-.438q-1.414,1.912-2.827,3.831l-.94-.692q-1.195,2.05-2.391,4.105Zm345.594,107.508q10.783,2.621,21.374,4.419.883.148,1.763.292-.326-7.313-.69-14.607-11.22.07-22.737-.963Q-296.8,381.093-296.666,386.527Zm-3.992-11.213q.148,5.14.277,10.287-11.652-2.971-23.475-6.832-.013-3.4-.035-6.8Q-312.173,374.121-300.658,375.314Zm3.593-3.365q11.484,1.035,22.66.99-.617-12.05-1.333-24.046a203.8,203.8,0,0,1-22.009,2.9Q-297.37,361.852-297.065,371.949Zm-4.366-19.9q.366,9.752.663,19.539-11.457-1.2-23.149-3.381-.063-7.941-.175-15.86,1.155.038,2.306.064Q-311.506,352.654-301.431,352.05Zm3.543-3.949a199.721,199.721,0,0,0,21.927-2.924q-1.059-17.431-2.3-34.726a190.255,190.255,0,0,1-20.994,6.559Q-298.5,332.5-297.888,348.1Zm-5.022-30.209q.743,15.18,1.339,30.467-9.943.612-20.129.362-1.221-.029-2.446-.069-.208-13.492-.545-26.908A216.194,216.194,0,0,0-302.91,317.891Zm3.465-4.643a185.756,185.756,0,0,0,20.9-6.644q-1.468-20.156-3.147-40.09a194.847,194.847,0,0,1-19.8,10.185Q-300.376,294.879-299.446,313.248Zm-5.646-34.991q1.086,17.853,2,35.885a211.6,211.6,0,0,1-21.691,3.89q-.426-16.228-1.015-32.322A208.679,208.679,0,0,0-305.091,278.257Zm3.361-5.5a190.889,190.889,0,0,0,19.7-10.338q-1.914-22.514-4.037-44.689a218.737,218.737,0,0,1-18.453,13.694Q-303.035,251.944-301.731,272.758Zm-6.33-39.035q1.456,20.172,2.73,40.623a204.289,204.289,0,0,1-20.612,7.546q-.7-18.673-1.585-37.133A221.045,221.045,0,0,0-308.06,233.722Zm3.226-6.537A215.322,215.322,0,0,0-286.5,213.272q-2.394-24.849-4.97-49.193-8.29,9.007-16.989,16.874Q-306.563,203.843-304.834,227.185Zm-7.076-43.156q1.855,22.534,3.545,45.5a217.064,217.064,0,0,1-19.358,11.188q-1.035-21.3-2.256-42.263Q-320.775,191.761-311.91,184.029Zm3.065-7.732q8.627-8,16.857-17.136-2.868-27.041-5.845-53.344-7.554,10.236-15.467,19.444Q-311.022,150.438-308.845,176.3Zm-7.818-47.176q2.238,24.832,4.372,50.313-8.792,7.859-17.944,14.624-1.411-24.056-2.978-47.579Q-324.783,138.278-316.663,129.121Zm2.894-9.019q7.837-9.344,15.323-19.714-3.269-28.929-6.513-56.812-6.842,10.973-13.966,21.083Q-316.361,91.877-313.769,120.1ZM-322.2,69.258q2.533,26.912,5.082,54.78-8.043,9.288-16.412,17.578-1.787-26.836-3.643-52.85Q-329.565,79.424-322.2,69.258Zm2.744-10.294q7.047-10.228,13.817-21.316-3.505-30.341-6.77-59.238Q-318.6-10.526-324.972-.124q2.52,27.633,5.278,56.607Q-319.577,57.723-319.46,58.964ZM-328.206,5.1q2.334,25.445,4.857,51.993.308,3.269.618,6.554-7.282,10.281-14.827,19.709-.434-6.146-.866-12.239-1.64-23.16-3.193-45.52Q-334.827,15.672-328.206,5.1ZM-325.534-6.3q6.3-10.482,12.414-21.618-3.456-31.09-6.362-60.234-5.6,10.382-11.278,20.325Q-328.454-38.1-325.534-6.3Zm-8.488-55.861q2.343,29.605,5.258,61.175-6.544,10.647-13.262,20.631-2.172-31.87-3.9-61.86Q-339.937-51.972-334.021-62.164Zm2.758-12.26q5.608-9.958,11.138-20.35-.713-7.409-1.376-14.676-2.107-23.132-3.623-44.775-5.015,8.854-10.024,17.477.86,18.709,2.2,38.6Q-332.177-86.475-331.263-74.423Zm-7.3-56.462q.8,16.083,1.93,32.978.953,14.341,2.108,29.236-5.84,10.2-11.758,19.961-1.051-19.356-1.792-37.8-.541-13.7-.87-26.862Q-343.763-122.014-338.568-130.885Zm3.119-12.718q4.934-8.557,9.875-17.338c-1.169-18.057-1.958-35.257-2.27-51.506q-4.353,4.951-8.546,9.9C-336.676-184.158-336.312-164.463-335.449-143.6Zm-4.693-54.486c-.185,18.907.286,39.1,1.252,60.428q-5.113,8.793-10.217,17.354c-.47-23.354-.355-45.325.552-65.727q2.948-4.505,5.92-9.045Q-341.395-196.584-340.141-198.089Zm3.865-10.286q4.1-4.773,8.345-9.551-.093-7.325-.047-14.38-3.9,3.76-7.709,7.521Q-336.081-216.773-336.276-208.375Zm-3.285-12.556q-.353,8.307-.5,17-2.78,3.292-5.487,6.58l-.064.078-.055.084-2.523,3.853q.559-10.136,1.4-19.721l.839-1.094q.553-.718,1.106-1.437Q-342.229-218.258-339.56-220.931Zm4.788-18.435q3.454-3.317,7-6.554l.027-.024.008-.284.007-.22q-3.546,3.022-6.973,6.161Q-334.737-239.826-334.773-239.365Zm-3.91,2.8q-.039.541-.075,1.083-3.216,3.182-6.347,6.434.083-.675.168-1.347Q-341.859-233.53-338.682-236.563Zm4.44-9.111q3.289-2.922,6.683-5.742.051-1.3.106-2.6-3.324,2.7-6.526,5.545Q-334.114-247.077-334.242-245.674Zm-3.788.9q-.121,1.366-.234,2.747-2.974,2.755-5.863,5.6.2-1.409.408-2.8Q-340.925-242.061-338.031-244.772Zm4.614-9.08q3.047-2.6,6.2-5.08.109-2.04.233-4.051-3.042,2.463-5.963,5.075Q-333.19-255.9-333.417-253.853Zm-3.692-.2q-.208,1.882-.4,3.789-2.658,2.393-5.234,4.877.31-1.851.636-3.672Q-339.655-251.616-337.109-254.055Zm4.883-9.379q2.739-2.326,5.581-4.532.183-2.494.392-4.942-2.7,2.271-5.276,4.687Q-331.893-265.852-332.226-263.434Zm-3.654-.531q-.29,2.1-.559,4.232-2.253,2.048-4.436,4.18.4-2.006.83-3.975Q-338-261.8-335.88-263.965Zm5.3-10.1q2.356-2.061,4.8-4.01.266-2.672.565-5.285-2.274,2.083-4.451,4.3Q-330.136-276.594-330.576-274.065Zm-3.751.029q-.339,1.98-.656,4-1.729,1.648-3.407,3.358.454-1.843.93-3.65Q-335.921-272.222-334.327-274.036Zm5.994-11.47q1.869-1.738,3.8-3.388.336-2.534.706-5.009-1.755,1.833-3.44,3.768Q-327.816-287.853-328.333-285.506Zm-4.177,1.868q-.288,1.385-.565,2.79-1.006,1.043-1.992,2.113.382-1.242.776-2.466Q-333.411-282.437-332.51-283.639Zm7.232-14.066q1.211-1.223,2.456-2.4.336-1.936.7-3.831-1.082,1.353-2.129,2.759l-.038.124Q-324.8-299.4-325.277-297.7Zm4.393-13.383.313-.343c.058-.261.118-.521.177-.78l-.162.263Q-320.72-311.52-320.884-311.088Zm10.121-20.686q-.355.946-.7,1.91a79.626,79.626,0,0,1,8.593-7.758c15.7-12.205,35.752-17.985,60.974-16.592l.029,0,.028,0q26.135,2.261,51.237,5.363,4.606-3.247,9.25-6.471-24.57-4.713-50.289-8.669c-25.458-3.483-45.018.731-59.958,11.415A73.126,73.126,0,0,0-310.763-331.774Zm136.8-22.107q-3.951,3.053-7.872,6.127,2.388.3,4.767.612,4.529-2.783,9.088-5.547Q-170.965-353.29-173.964-353.882Zm10.656-1.629q-3.373-.689-6.767-1.365,4.145-3.18,8.32-6.337,3.925,1.043,7.818,2.1Q-158.637-358.322-163.309-355.511Zm.672,3.907q-4.32,2.6-8.613,5.228,4.41.587,8.79,1.194,4.365-2.289,8.753-4.563Q-158.154-350.684-162.637-351.6Zm14.112-.818q-4.7-1.005-9.439-1.989,4.479-2.682,8.984-5.343,4.606,1.271,9.169,2.563l-.333.276-.371.309-.265.221Q-144.661-354.41-148.525-352.421Zm3.38,4.505q-2.629,2.215-5.243,4.441l2.789.4q4.125-1.794,8.264-3.577Q-142.232-347.286-145.144-347.916Zm11.624-1.228q-4.009-.894-8.047-1.775,1.414-1.184,2.832-2.363,2.27-1.156,4.544-2.306,4.721,1.355,9.4,2.731Q-129.166-351.008-133.521-349.144Zm.358,3.864q-3.76,1.61-7.508,3.23,4.014.6,8,1.208,3.785-1.311,7.578-2.614Q-129.112-344.374-133.163-345.28Zm13.962-.615q-4.062-.937-8.153-1.864,4.064-1.729,8.14-3.446,2.216.66,4.423,1.324Q-117-347.892-119.2-345.9Zm1.053,4.034q-1.532,1.4-3.06,2.795l3.476.549q3.3-.853,6.609-1.7Q-114.626-341.044-118.149-341.861Zm14.726-.331q-4.105-.98-8.24-1.95,3.722-1.263,7.45-2.519,4.152,1.278,8.268,2.565Q-99.685-343.146-103.423-342.192Zm.03,3.8q-2.6.665-5.207,1.333,2.9.469,5.779.94l5.2-.887Q-100.5-337.7-103.393-338.387Zm9.787-1.443-2.112-.512,3.568-.9Q-92.879-340.539-93.606-339.83Zm5.187,1.263-.949-.232q1.254-1.217,2.512-2.431,2.462.782,4.912,1.568Zm-.136,3.77-3.1.526,3.7.619,3.019-.255Q-86.741-334.352-88.555-334.8Zm15.083-.073q-2.957-.738-5.928-1.475l5.086-.857q2.942.954,5.867,1.91l-1.323.111h0l-.035,0Zm14.882,3.746-3.818-.966,2.945-.247q1.841.608,3.675,1.217Zm82.145,20.9q-4.93-1.219-9.893-2.463,5.271.849,10.514,1.669Zm-44.133-7.362q9.557,2.453,18.983,4.854C-87.341-207.415-159.866-85.747-188.838,27.9l-.008.032-.007.033c-16.241,74.727-42.757,127.186-75.367,163.606a226.477,226.477,0,0,1-18.853,18.743q-2.442-25.224-5.067-49.914c33.527-37.778,61.6-90.348,80.432-163.619C-175.688-108.081-104.3-220.005-20.578-317.581Zm-9.257-2.378,1.925.495h0l3.344.859C-108.018-221.07-179.2-109.254-211.254-4.26l-.012.04-.01.04c-18.27,71.111-45.248,122.441-77.4,159.579q-2.919-27.4-5.941-54.017c25.323-35.445,47.37-80.029,64.439-136.6C-195.386-131.167-125.8-232.966-44.855-322.543Q-37.312-321.244-29.834-319.959ZM42.51-301.822l1.013.24-.056.075Zm3.425-2.985q-9.171-2.163-18.446-4.444l.873-1.113q9.825,1.516,19.559,2.914Q46.926-306.13,45.935-304.807Zm1.508,4.149-.275.368q8.706,2.852,17.3,5.58.634-.888,1.268-1.774Q56.634-298.5,47.442-300.658Zm20.637.909q-9.063-1.995-18.219-4.136,1.118-1.487,2.24-2.971,9.669,1.356,19.26,2.568Q69.717-302.024,68.08-299.75Zm1.582,4.128q-.745,1.039-1.489,2.08,8.412,2.643,16.732,5.14,1.191-1.759,2.386-3.512Q78.513-293.686,69.661-295.622Zm19.893.4q-8.734-1.751-17.542-3.664,1.764-2.446,3.536-4.88,6.571.8,13.111,1.526,2.671.295,5.337.575Q91.77-298.457,89.555-295.226Zm1.67,4.1q-1.305,1.913-2.608,3.831,8.47,2.508,16.858,4.838,1.714-2.677,3.439-5.342-3.195-.568-6.4-1.162Q96.885-290.005,91.225-291.127Zm19.872-.038q-3.947-.694-7.907-1.428-4.837-.9-9.693-1.851,2.342-3.406,4.7-6.792,9.231.929,18.412,1.668Q113.841-295.381,111.1-291.165ZM-177.1-358.259c-17.556-3.413-35.539-6.576-54-9.382l-.014,0h-.014c-26.13-3.578-46.717.692-62.624,12.068a70.426,70.426,0,0,0-10.187,8.913c5.713-10.2,12.769-18.163,21.341-23.773,15.017-9.827,35.034-12.643,61.461-7.016q27.537,5.863,53.528,12.7Q-172.368-361.518-177.1-358.259ZM-344.481-260.91q.7-1.024,1.412-2.03-.19.834-.374,1.674-.75.844-1.489,1.7Q-344.708-260.24-344.481-260.91Zm-3.338,10.755q1.392-1.817,2.824-3.579-.279,1.452-.548,2.923-1.515,1.6-2.994,3.237Q-348.183-248.872-347.82-250.155Zm-2.769,10.591q1.913-2.3,3.888-4.524-.25,1.548-.49,3.115-2.064,2.111-4.074,4.283Q-350.932-238.136-350.589-239.564Zm-2.257,10.162q2.335-2.677,4.746-5.266-.175,1.283-.342,2.577-2.484,2.555-4.9,5.176Q-353.1-228.165-352.846-229.4Zm-1.8,9.431q2.686-3.036,5.454-5.987-.049.418-.1.836-.032.277-.063.554-2.812,3.017-5.557,6.09Q-354.776-219.226-354.644-219.971Zm-3.24,21.6q3.438-4.619,6.935-9.232-.773,9.919-1.251,20.389-4.088,6.25-8.127,12.435Q-359.308-186.955-357.884-198.367Zm-3.039,31.263q4.188-6.419,8.429-12.906c-.743,20.486-.732,42.435-.175,65.655q-5.31,8.833-10.611,17.43C-363.2-121.88-362.5-145.347-360.923-167.1ZM-363.288-89.9q5.393-8.686,10.8-17.609.294,10.407.72,21.137.83,21.016,2.088,43.213-6.181,10.035-12.437,19.622-.808-26.477-1.085-51.335Q-363.279-82.464-363.288-89.9Zm1.37,72.773q6.335-9.59,12.6-19.621Q-347.6-7-345.392,24.6q-6.994,10.176-14.152,19.7Q-360.906,12.715-361.918-17.122Zm2.623,67.177q7.232-9.472,14.307-19.582,1.4,20.269,2.894,41.2h0q.561,7.9,1.124,15.894-7.8,9.507-15.843,18.185-.461-10.36-.921-20.579h0l0-.049,0-.08Q-358.534,67.322-359.294,50.055Zm2.713,60.866q8.108-8.61,15.99-18.018,1.805,25.649,3.579,52.113-8.59,8.266-17.467,15.583Q-355.478,135.419-356.582,110.921Zm2.284,54.3q8.936-7.249,17.6-15.407,1.52,23.147,2.912,46.824-9.328,6.668-18.963,12.314Q-353.44,186.877-354.3,165.224Zm1.682,47.932q9.685-5.6,19.084-12.166,1.182,20.595,2.2,41.531-9.99,4.883-20.286,8.719Q-352.03,232.066-352.616,213.155Zm1.08,41.993q10.335-3.808,20.4-8.617.855,18.115,1.544,36.445-10.566,3.04-21.42,5.04Q-351.2,271.5-351.536,255.149Zm.558,36.618q10.885-1.995,21.521-4.988.571,15.779.989,31.691-5.9.653-11.875,1.014-5.22.318-10.491.423Q-350.838,305.788-350.977,291.766Zm10.86,31.4q5.9-.359,11.745-1,.326,13.126.533,26.327-11.452-.539-23.114-2.044.11-11.455.12-22.859Q-345.453,323.493-340.117,323.17Zm-10.875,27.006q11.693,1.478,23.207,2.026.107,7.638.171,15.3-11.691-2.313-23.536-5.508Q-351.057,356.078-350.992,350.177Zm-.221,15.621q11.876,3.162,23.627,5.471.021,3.138.035,6.279-11.81-3.968-23.716-8.725.014-.762.028-1.525Zm36.564-685.61q.154-.55.311-1.095a79.2,79.2,0,0,1,13.736-13.8c14.863-11.551,33.975-17.17,58.477-15.821q23.949,2.072,47.033,4.86-4.489,3.189-8.939,6.4-23.933-1.083-48.556-1.5h-.09c-24.3.8-43.8,8.075-59.308,21.1q-1.815,1.525-3.555,3.152Q-315.106-318.183-314.649-319.812Zm121.44-18.934q3.632-2.909,7.294-5.8,1.928.24,3.85.486-4.377,2.71-8.723,5.439Zm8.834.469q4.049-2.524,8.126-5.034,4.1.536,8.169,1.087-4.155,2.2-8.287,4.405Q-180.362-338.054-184.375-338.277Zm15.059.887q3.752-1.991,7.523-3.972l2.8.391q-2.286,1.97-4.561,3.947Q-166.43-337.209-169.316-337.39Zm13.715-6.832.339.048q.9-.771,1.805-1.541l-1.532.8-1.182.615Zm1.325,4.067.147-.126.106.015Zm.557,3.789q3.308-1.453,6.626-2.9,3.477.509,6.936,1.026-3.358,1.172-6.71,2.351Q-150.285-336.13-153.718-336.366Zm24.376-.229-2.985-.459q-2.65.919-5.3,1.842,2.79.207,5.572.42l1.068-.279Zm15.308,2.408-3.52-.561-3.222.835,3.532.282Zm99.522,13.095q8.736,1.479,17.384,2.909.623-.758,1.247-1.514-9.429-.718-18.93-1.5Zm-34.649-2.193-9.686-1.668-3.226-.281-.037,0-.1-.008-9.076-.793C-148.624-244.883-215.609-153.727-252.644-67.2c-14.388,40.79-30.98,75.649-49.182,105.681l.314,2.721,0,.016v.021l0,.018v.033q3.093,26.772,6.264,54.573C-271.142,61.293-250.114,18.1-233.7-36.33l.015-.048.017-.048C-198.9-132.336-129.682-233.86-49.16-323.286Zm56.249,5.795q9.9,1.62,19.706,3.147,1.4-1.774,2.8-3.542-10.443-.683-20.966-1.471Q7.86-318.425,7.089-317.491Zm23.9,3.8q9.784,1.5,19.477,2.878,2.129-2.807,4.268-5.6-10.287-.525-20.646-1.182Q32.537-315.652,30.99-313.7Zm23.668,3.467q9.632,1.339,19.186,2.528,2.81-3.847,5.639-7.667-2.336-.078-4.676-.163-7.775-.286-15.587-.663Q56.934-313.221,54.659-310.229Zm34.406,4.315q3.676.4,7.34.782,3.4-4.869,6.822-9.693-9.6-.116-19.248-.4-2.976,4-5.934,8.041Q83.567-306.522,89.065-305.914Zm11.551,1.206q9.188.905,18.323,1.619,3.917-5.9,7.872-11.726-9.521.114-19.082.037Q104.158-309.768,100.616-304.708ZM-354.887,364.8q-.022,1.272-.044,2.545-9.937-4.052-19.893-8.59Q-364.836,362.043-354.887,364.8Zm.21-15.112q-.062,5.643-.148,11.3-11.876-3.314-23.829-7.409.165-4,.318-8Q-366.457,348.046-354.677,349.689Zm.153-26.041q-.012,11.132-.115,22.317-11.714-1.636-23.558-4.131.347-9.489.622-18.943Q-365.979,323.707-354.524,323.648Zm-.137-31.236q.131,13.723.137,27.543-11.386.075-22.947-.758.335-12.044.563-24.022,9.578-.793,19.027-2.244Q-356.268,292.683-354.661,292.413Zm-.54-35.947q.324,16.024.5,32.207-1.869.318-3.746.608-9.128,1.412-18.394,2.183.258-14.347.386-28.579.411-.105.822-.212Q-365.32,260-355.2,256.466Zm-1.047-41.25q.56,18.55.966,37.361-10.45,3.721-21.139,6.485.136-16.973.12-33.751Q-366.158,220.715-356.248,215.216Zm-1.636-47.126q.823,21.27,1.509,42.96-9.84,5.576-19.928,10.2-.031-19.947-.22-39.564Q-367.09,175.318-357.884,168.09Zm-2.235-53.461q1.064,24.1,2.056,48.885-9.129,7.316-18.5,13.733-.228-23.273-.584-46Q-368.534,123.327-360.119,114.629Zm-1.3-29.1,0,.089v.04h0l0,.086q.531,11.8,1.064,23.778-8.333,8.781-16.88,16.76-.213-13.95-.437-27.659v-.143q-.2-12.687-.4-25.148,7.7-9.054,15.264-18.739Q-362.126,69.886-361.418,85.53Zm-4.023-97.361q.992,29.512,2.394,60.734-7.473,9.741-15.1,18.829-.462-30.876-.669-60.192Q-372.095-1.921-365.441-11.83ZM-366.965-84q.022,4.554.067,9.169.267,27.348,1.248,56.669-6.561,9.906-13.194,19.355c-.084-22.282.041-43.792.518-64.4q.034-1.5.072-2.988Q-372.616-74.978-366.965-84Zm1.909-76.769c-1.381,21.771-1.94,45.122-1.927,69.825q-5.545,8.918-11.078,17.594c.777-26.462,2.189-51.36,4.543-74.431Q-369.313-154.241-365.056-160.769Zm2.739-31.606q-1.315,11.653-2.221,24.051-4.075,6.245-8.1,12.427,1.627-14.26,3.8-27.519Q-365.609-187.9-362.317-192.374Zm1.764-13.915-.023.163q-2.686,3.3-5.323,6.621l.067-.331Q-363.224-203.092-360.553-206.29Zm1.252-8.283q-.109.675-.216,1.352-2.328,2.7-4.607,5.446.144-.64.292-1.277Q-361.6-211.843-359.3-214.573Zm1.561-9.025q-.181.976-.358,1.958-1.878,2.14-3.719,4.32.221-.855.444-1.7Q-359.579-221.339-357.74-223.6Zm1.851-9.287q-.191.89-.377,1.786-1.294,1.5-2.565,3.018.212-.707.425-1.409Q-357.162-231.205-355.889-232.884Zm2.027-8.85-.032.131c-.028.114-.056.228-.083.342q-.471.571-.937,1.147l.029-.081Q-354.378-240.969-353.862-241.735Zm36.678-67.916q-.6,2.72-1.147,5.535c14.811-12.458,32.891-20.379,54.867-23.19l.061-.008.061,0q23.191-1.416,45.97-2.206,4.245-3.138,8.532-6.258-21.6-.921-43.76-1.294c-23.558.78-42.224,7.815-57.007,20.236A87.87,87.87,0,0,0-317.184-309.651Zm119.644-25.614q-2.607,2.1-5.2,4.217,3.251-2.08,6.521-4.152Zm7.727.393q-3.745,2.355-7.465,4.722,3.524-.094,7.038-.177,3.815-2.081,7.652-4.151Q-186.193-334.68-189.813-334.871Zm14.268.8q-3.321,1.779-6.626,3.565,3.238-.067,6.469-.125,3.377-1.521,6.766-3.036Q-172.235-333.871-175.545-334.069Zm14.547.915-2.8,1.243-.58.508-.69.6q2.01-.029,4.016-.055,2.717-.972,5.439-1.939Q-158.3-332.976-161-333.154Zm14.629,1.007-3.3,1.164,1.323-.013,1.98-.018,1.673-.444,1.052-.279.634-.168Q-144.687-332.027-146.369-332.147Zm127.514,6.914q-5.186-.429-10.4-.871l-.994-.337-2.894-.98q8.132-.01,16.223-.043Q-17.887-326.35-18.855-325.233Zm-69.026-2.244,5.422.467,6.468.56C-152.714-245.578-219.145-154.881-256.064-68.6l-.024.055-.02.057c-13.656,38.724-29.3,72.051-46.414,100.942q-3.531-30.576-6.8-59.64a724.482,724.482,0,0,0,34.2-72C-236.65-175.56-173.4-255.372-100.883-327.487h4.1Q-92.325-327.483-87.88-327.477Zm94.887,4.294q-10.6-.8-21.3-1.676,1.147-1.316,2.3-2.629,11.415-.062,22.756-.2Q8.882-325.439,7.007-323.183Zm25.4,1.776q-10.393-.666-20.869-1.44,2.05-2.457,4.109-4.9,11.128-.155,22.189-.408Q35.11-324.792,32.4-321.407Zm25.071,1.43q-10.247-.505-20.566-1.146,2.88-3.589,5.778-7.15,9.159-.234,18.274-.554,1.75-.062,3.5-.127Q60.954-324.488,57.473-319.977Zm24.693,1q-3.607-.112-7.222-.245-6.472-.237-12.969-.539,3.651-4.715,7.329-9.381,10.665-.431,21.276-1.007Q86.357-324.6,82.166-318.977Zm23.672.488q-9.554-.093-19.16-.358,4.359-5.824,8.757-11.576,10.015-.584,19.988-1.32Q110.608-325.163,105.839-318.489Zm23.51-.055q-9.475.142-18.991.089,4.935-6.879,9.918-13.658,9.844-.771,19.648-1.715Q134.606-326.246,129.348-318.544ZM-369.313-208.158q1.1-1.592,2.218-3.161-.073.308-.145.617-1.068,1.342-2.123,2.7Zm-3.2,10.488q1.689-2.323,3.412-4.606-.076.369-.154.74l-.018.086q-1.71,2.145-3.393,4.314l.081-.284Zm-2.709,10.015q2.169-2.923,4.384-5.8l-.064.347q-2.216,2.87-4.4,5.762Zm2.872,2.782.055-.326q-2.636,3.494-5.222,7.02-.089.384-.176.769Q-375.038-181.144-372.348-184.874Zm-4.752,35.828q1.479-14.314,3.469-27.7-3.054,4.285-6.06,8.574-3.116,15.151-5.508,31.581Q-381.173-142.788-377.1-149.046Zm-9.311,21.108q4.24-6.534,8.531-13.135c-2.127,23-3.375,47.674-4.039,73.753q-5.831,9.068-11.647,17.885l.032-.545.093-1.566C-391.823-78.638-389.592-104.194-386.412-127.938Zm-7.565,85.81q5.937-8.939,11.891-18.128c-.457,21.344-.549,43.6-.431,66.648q-7,9.829-14.066,19.195C-395.961,2.188-395.149-20.428-393.977-42.128ZM-396.746,31.9q7.162-9.389,14.265-19.233.193,28.917.7,59.361-8,9.352-16.135,18.058Q-397.413,60.316-396.746,31.9Zm-1.262,63.658q8.219-8.685,16.313-17.993.165,10.655.341,21.473V99.1q.243,15.127.481,30.55-8.89,8.112-17.962,15.448.3-16.917.562-33.5v-.01l0-.2Q-398.138,103.43-398.008,95.555Zm-.912,54.354q9.144-7.3,18.121-15.341.329,22.309.562,45.161-9.671,6.442-19.539,12.034.1-4.1.186-8.178Q-399.213,166.6-398.919,149.91Zm-.958,46.153q9.931-5.562,19.681-11.932.17,19.232.2,38.788-7.295,3.231-14.687,6.02-3.078,1.164-6.17,2.256Q-400.292,213.505-399.878,196.063Zm6.5,36.33q6.73-2.544,13.383-5.441.005,16.425-.127,33.045-10.882,2.668-21.931,4.465.6-14.725,1.07-29.309Q-397.166,233.826-393.374,232.393Zm-8.83,35.834q11.1-1.794,22.052-4.421-.131,13.915-.381,27.945-11.325.808-22.782.769Q-402.708,280.333-402.2,268.227Zm-1.3,27.984q11.5.029,22.9-.752-.227,11.694-.55,23.458-11.675-.958-23.443-2.725Q-404.01,306.178-403.5,296.211Zm-1.314,23.68q11.809,1.748,23.558,2.722-.268,9.2-.6,18.437-11.931-2.621-23.911-6Q-405.269,327.457-404.815,319.89Zm-1.208,18.921Q-394,342.167-382,344.8q-.142,3.758-.3,7.521-12.017-4.213-24.03-9.11Q-406.171,341.008-406.023,338.811Zm85.7-631.121q.441-3.02.934-5.946.389-.359.78-.713c14.7-13.3,32.924-21.759,55.557-24.664q20.38-1.243,40.444-2-4.017,3-7.993,6.009-21.684,2.643-43.5,5.776l-.077.011-.075.018A117.113,117.113,0,0,0-320.327-292.31ZM-223.3-320.5q3.588-2.692,7.208-5.372l.6-.021.721-.025q-3.084,2.563-6.141,5.136Zm12.467-9.246.716-.023q2.763-2.275,5.545-4.542Q-207.718-332.035-210.838-329.748Zm.974,7.691q3.261-2.119,6.544-4.229,3.012-.088,6.017-.168-3.394,1.871-6.769,3.75Q-206.966-322.384-209.863-322.057Zm15.285-1.68q2.655-1.462,5.321-2.917,2.519-.059,5.034-.112-2.752,1.254-5.495,2.513Q-192.148-324-194.579-323.737Zm88.463-3.749q-5.347,0-10.713.014-9.3.812-18.628,1.654c-65.788,62.08-123.57,129.516-162.157,194.664q-9.23,19.253-18.728,37.129,2.817,29.146,6.31,60.41a726.623,726.623,0,0,0,31.519-67.037l.027-.065.032-.063C-240.233-176.682-177.768-255.825-106.115-327.486Zm62.024-3.624h2.034q1.341-1.465,2.685-2.926-5.366.458-10.742.912Q-47.093-332.117-44.092-331.11Zm7.047,0q11.729-.007,23.37-.061,2.436-2.775,4.882-5.532-12.533,1.125-25.121,2.2Q-35.482-332.81-37.045-331.112Zm28.314-.089q11.356-.071,22.637-.217,3.41-4.038,6.843-8.039-12.057,1.17-24.166,2.266Q-6.081-334.206-8.731-331.2Zm27.535-.287q11.079-.167,22.09-.436,4.292-5.261,8.618-10.459l-2.4.255q-10.5,1.114-21.045,2.151Q22.425-335.753,18.8-331.487Zm42.025-1.031q3.318-.117,6.63-.247,5.1-6.449,10.238-12.8-11.422,1.365-22.9,2.614-4.533,5.417-9.031,10.9Q53.313-332.254,60.83-332.518Zm11.5-.446q10.63-.45,21.2-1.049,5.817-7.591,11.691-15.046-11.1,1.495-22.252,2.855Q77.626-339.638,72.328-332.964ZM98.41-334.3q9.97-.6,19.893-1.365,6.361-8.631,12.79-17.092Q120.82-351.2,110.5-349.779,104.426-342.114,98.41-334.3Zm24.77-1.75q9.795-.8,19.548-1.764,6.784-9.608,13.65-19.013-9.99,1.707-20.026,3.263Q129.731-344.9,123.18-336.051ZM-409.656,337.78q-.123,1.821-.248,3.641-7.723-4.106-15.4-8.429Q-417.488,335.521-409.656,337.78Zm1.174-18.451q-.439,7.329-.923,14.681-12.109-3.509-24.182-7.679.571-5.755,1.112-11.5Q-420.49,317.422-408.482,319.329Zm1.283-23.148q-.5,9.7-1.065,19.446-11.928-1.891-23.866-4.492.745-8.023,1.436-16.016Q-418.936,296.009-407.2,296.182Zm1.274-27.376q-.5,11.805-1.087,23.688-11.655-.149-23.364-1.051.855-10.04,1.636-20.025Q-417.3,270.487-405.925,268.806Zm1.209-32.378q-.47,14.243-1.054,28.623-11.294,1.715-22.681,2.644.96-12.442,1.819-24.787Q-415.623,240.05-404.716,236.427Zm1.093-38.3q-.42,17.059-.966,34.358-10.825,3.67-21.774,6.535,1.055-15.324,1.986-30.474,6.652-3.078,13.259-6.461Q-407.36,200.161-403.622,198.13Zm.955-45.262q-.278,15.2-.615,30.636-.114,5.166-.237,10.357-4.626,2.554-9.285,4.94-5.637,2.891-11.316,5.553.743-12.174,1.427-24.217.375-6.561.735-13.079Q-412.247,160.318-402.667,152.867Zm.711-41.9-.006.347-.005.319q-.295,18.036-.615,36.472-9.485,7.508-19.117,14.268,1.07-19.48,2.069-38.538.185-3.492.37-6.967,8.8-8.38,17.492-17.376-.083,5.035-.166,10.1l-.018,1.122Zm1.393-74.1q-.668,27.942-1.116,57.211-8.587,9.025-17.3,17.411,1.5-28.248,3.086-55.37Q-408.2,46.722-400.562,36.864Zm2.572-72.976c-1.082,21.422-1.835,43.713-2.418,66.735q-7.52,9.829-15.1,19.186c1.418-23.168,2.982-45.633,4.859-67.263Q-404.329-26.653-397.991-36.111Zm6.932-84.661c-2.682,21.687-4.622,44.759-6.07,69.007q-.25,4.2-.482,8.44-6.192,9.313-12.368,18.365.685-7.523,1.427-14.906c2.388-23.714,5.25-46.281,8.824-67.515Q-395.42-114.044-391.059-120.772Zm6.118-39.853q-2.844,15.111-5.022,31.374-4.091,6.306-8.136,12.552,3.4-18.695,7.651-35.888Q-387.713-156.609-384.94-160.626Zm1.995-10.038-.208,1q-2.277,3.254-4.529,6.511.176-.641.354-1.279Q-385.156-167.56-382.946-170.664Zm2-9.094v.008l-.109.148Zm59.888-107.232q-.367,2.871-.688,5.821a135.543,135.543,0,0,1,36.708-19.138l.087-.03.089-.021q20.522-4.834,41.169-9.23,3.608-2.8,7.253-5.6-18.479,2.308-37.062,4.981A112.957,112.957,0,0,0-321.053-286.99Zm91.886-29.088q-3.111,2.36-6.2,4.728l3.79-.791q1.126-.757,2.255-1.512,1.639-1.4,3.285-2.8Zm12.409-1.473q-2.6,1.712-5.194,3.429,2.055-.419,4.111-.834,2.73-1.553,5.475-3.1Q-214.562-317.806-216.759-317.551Zm13.836-1.565-3.285,1.835,2.519-.5q1.755-.822,3.514-1.641Zm26.414-6.5-1.7.172,1.057-.478.494-.224.61-.276.758-.342.142-.064Zm30.893.727,4.215-.389c-64.6,61.4-121.307,127.918-159.433,192.311l-.041.07-.035.073q-7.938,16.561-16.073,32.093-.43-4.555-.84-9.054-2.38-26.146-3.992-50.3.849-1.512,1.7-3.03c36.193-51.91,85.407-105.058,140.982-155.177q2.493-.69,4.988-1.377Q-159.89-322.336-145.616-324.888ZM-35.65-338.063q-11.66,1-23.374,1.981l-1.958-.646q1.584-1.626,3.173-3.245l11.093-1.858.055-.009q8.626-1.444,17.24-2.889Q-32.545-341.408-35.65-338.063Zm30.45-2.676q-12.449,1.127-24.964,2.2,3.38-3.618,6.781-7.207Q-9.966-348,3.412-350.274-.91-345.535-5.2-340.739Zm29.44-2.77Q12.254-342.333.2-341.231q4.552-5.06,9.142-10.057,11.983-2.052,23.929-4.142l1.655-.29Q29.562-349.662,24.24-343.509Zm28.683-2.956q-3.1.336-6.2.664-8.552.907-17.137,1.762,5.575-6.408,11.2-12.715,12.355-2.184,24.656-4.431Q59.156-353.9,52.923-346.465Zm28.125-3.227q-11.375,1.382-22.809,2.644,6.477-7.678,13.018-15.2,12-2.216,23.946-4.512Q88.092-358.327,81.048-349.692Zm27.479-3.545q-11.058,1.515-22.174,2.893,7.28-8.874,14.634-17.54,11.585-2.255,23.1-4.6Q116.272-362.991,108.527-353.236Zm25.794-3.752q-10.218,1.577-20.487,3.016,7.973-9.984,16.027-19.7,10.507-2.174,20.954-4.441Q142.528-367.7,134.321-356.988Zm25.2-4.129q-9.93,1.725-19.909,3.3,8.42-10.935,16.929-21.554,10.077-2.221,20.091-4.543Q168.034-372.686,159.522-361.117ZM-396.9-150.29q1.648-2.5,3.317-4.988-.147.579-.293,1.16-1.725,2.54-3.435,5.082Q-397.1-149.664-396.9-150.29Zm-4.262,13.7q2.4-3.643,4.834-7.281-3.858,16.892-6.921,35.124-4.148,6.415-8.249,12.772Q-406.84-117.154-401.159-136.59Zm-12.5,50.784q4.436-6.885,8.924-13.836c-2.969,18.881-5.414,38.727-7.5,59.4q-1.068,10.6-2.016,21.5Q-420.918-9.029-427.57.4q1.864-14.527,3.919-28.572C-420.707-48.2-417.425-67.453-413.655-85.806Zm-14.9,93.982q6.826-9.612,13.675-19.5c-1.774,21.276-3.264,43.332-4.628,66.039q-8.158,9.941-16.365,19.4C-433.579,51.487-431.194,29.468-428.551,8.176Zm-7.955,72.282q8.335-9.516,16.632-19.5-1.564,26.581-3,54.257-9.272,8.784-18.64,16.935Q-439.008,105.856-436.506,80.458Zm-5.511,57.015q9.47-8.162,18.864-16.931l-.168,3.163v0q-1.084,20.426-2.224,41.34-2.682,1.846-5.372,3.64-7.484,4.992-15.021,9.609l.155-1.589Q-443.85,156.885-442.017,137.473Zm13.149,34.288q1.534-1.023,3.065-2.063-.285,5.1-.576,10.228-.742,13.017-1.548,26.188-10.815,4.929-21.723,9.121,1.69-16.281,3.261-32.338Q-437.6,177.573-428.869,171.761Zm-21.211,47.6q10.975-4.185,21.895-9.071-.919,14.769-1.947,29.708-11.326,2.852-22.707,4.973Q-451.41,232.1-450.08,219.357Zm-3.186,29.44q11.444-2.123,22.865-4.933-.843,12.013-1.777,24.121-11.7.853-23.414,1.008Q-454.393,258.863-453.266,248.8Zm-2.765,23.889q11.77-.162,23.564-.983-.761,9.7-1.591,19.444-11.968-1.013-23.9-2.685Q-456.971,280.557-456.032,272.686Zm-2.391,19.438q11.988,1.66,24.048,2.7-.67,7.74-1.389,15.509-12.153-2.733-24.224-6.079Q-459.19,298.18-458.423,292.124Zm-2.053,15.825q12.124,3.333,24.366,6.089-.519,5.516-1.065,11.044-2.314-.814-4.624-1.65-9.661-5.755-19.174-11.774Q-460.723,309.8-460.476,307.949ZM-322.714-270.92q.215-2.64.46-5.225a131.528,131.528,0,0,1,38.334-20.639q16.741-3.943,33.565-7.589-3.118,2.456-6.208,4.919-19.693,6.135-39.04,12.611l-.1.033-.095.044A161.282,161.282,0,0,0-322.714-270.92Zm75.914-31.55q2.347-1.843,4.712-3.682l2.43-.517q-2.667,1.818-5.315,3.641Zm16.015-5.051q.772-.667,1.547-1.333l1.175-.243-.841.486-.6.348Zm165.9-30.492-1.562-.511,2.462-.413Zm-9.15-2.982q7.221-1.216,14.435-2.424,3.912-3.979,7.854-7.922Q-67.1-347.548-82.436-343.7-78.218-342.349-74.036-340.994Zm26.856-4.5.019,0,.018,0q10.976-1.838,21.93-3.676,5.422-5.709,10.893-11.337-15.227,3.712-30.47,7.461-4.314,4.276-8.595,8.6l6.152-1.031Zm28.045-4.7q13.33-2.244,26.615-4.513,6.673-7.254,13.414-14.369l-1.452.353-4.518,1.1-.012,0-.012,0-.012,0-.012,0-.012,0Q3.673-364.9-7.544-362.169-13.366-356.233-19.135-350.2Zm51.772-8.866q3.126-.547,6.25-1.1,7.727-8.646,15.535-17.085Q41-373.973,27.528-370.7q-7.071,7.4-14.074,14.957Q23.061-357.392,32.638-359.069Zm12.149-2.144q12.295-2.186,24.531-4.437,8.625-9.907,17.336-19.531-12.816,3.175-25.707,6.33Q52.829-370.147,44.787-361.213Zm30.382-5.52q11.955-2.224,23.843-4.529,9.392-11.047,18.871-21.73-12.347,3.122-24.783,6.212Q84.094-376.913,75.168-366.733Zm29.668-5.667q11.539-2.266,23.009-4.63,5.846-7.039,11.721-13.929,4.187-4.907,8.385-9.736-11.788,3.062-23.679,6.082-.775.864-1.547,1.732Q113.747-382.809,104.836-372.4Zm28.822-5.837q10.442-2.182,20.818-4.459,4.1-5.109,8.216-10.138,6.227-7.61,12.482-15.036-10.391,2.781-20.875,5.522-5.971,6.812-11.922,13.788Q138.01-383.442,133.658-378.237Zm26.59-5.737q10-2.231,19.942-4.562,3.87-5.01,7.753-9.946,6.551-8.327,13.135-16.442-9.775,2.708-19.644,5.37-7.96,9.375-15.883,19.058Q162.9-387.251,160.248-383.974ZM-461.547,315.9l1.028.411-1-.628Zm-3.4-2.389-.13.961q-5.24-2.137-10.442-4.358-6.929-3.778-13.763-7.674.269-1.507.536-3.013,2.238.731,4.484,1.448Q-474.714,307.295-464.95,313.51Zm.734-5.456q-.1.71-.19,1.421-3.7-2.36-7.363-4.755,3.841,1.139,7.7,2.227Q-464.143,307.5-464.216,308.054Zm2.136-16.451q-.736,5.814-1.5,11.646-9.583-2.712-19.059-5.735-2.586-1.74-5.155-3.494.576-3.294,1.144-6.585Q-474.456,289.778-462.081,291.6Zm2.325-18.882q-.91,7.594-1.864,15.219-12.27-1.794-24.407-4.146.99-5.781,1.951-11.545C-476.011,272.595-467.9,272.767-459.756,272.722Zm2.7-23.239q-1.1,9.745-2.256,19.548c-8.078.052-16.138-.112-24.15-.449q1.29-7.784,2.533-15.532Q-469.034,251.568-457.06,249.482Zm3.113-28.672q-1.3,12.371-2.686,24.853-11.863,2.121-23.693,3.594,1.643-10.3,3.218-20.538Q-465.541,225.083-453.947,220.81Zm3.612-35.547q-1.54,15.616-3.183,31.445-11.473,4.306-22.964,7.939,2.077-13.557,4.057-26.97Q-461.372,191.788-450.335,185.263Zm4.278-44.338q-1.67,17.546-3.4,35.424-.14,1.422-.279,2.847l-.146,1.5q-10.907,6.554-21.869,12.434,1.467-9.957,2.9-19.824,1.138-7.848,2.261-15.635Q-456.308,149.594-446.057,140.925ZM-440.69,85.2q-2.432,24.552-4.817,49.944h0l0,.022-.044.474q-10.107,8.666-20.276,16.707l.831-5.77.005-.039v0q3-20.869,5.974-41.221Q-449.844,95.5-440.69,85.2Zm7.646-70.725c-2.519,20.851-4.809,42.37-7.02,64.444q-8.986,10.229-18,19.955c3.211-21.713,6.468-42.93,9.919-63.552Q-440.614,25.05-433.044,14.478Zm13.931-91.8q-4.544,23.453-8.192,48.618Q-429.86-11.325-432.1,6.8q-7.35,10.34-14.671,20.383,3.823-22.321,8.042-43.639Q-433.976-40.3-428.509-62.7-423.84-69.976-419.113-77.325Zm11.2-48.915q-5.071,18.758-9.216,39.013-4.281,6.646-8.513,13.232c4.178-16.006,8.726-31.379,13.744-46.048Q-409.92-123.143-407.917-126.24Zm3.519-12.42-.1.329-.051.172q-.925,1.4-1.845,2.809l.13-.343Q-405.333-137.179-404.4-138.661Zm81.316-127.382q-.142,2.056-.267,4.144a199.154,199.154,0,0,1,16.825-11.3l.1-.058.1-.046q18.3-8.144,37.206-16.008,2.318-1.9,4.657-3.8-15.04,4.762-29.868,9.728A157.425,157.425,0,0,0-323.082-266.043Zm120.753-45.727q7.613-2.177,15.26-4.317c-53.049,48.395-100.066,99.492-135.156,149.536-1.072-17.558-1.766-34.249-1.993-49.991a971.462,971.462,0,0,1,75.833-75.489q9.15-4.589,18.454-9.123Q-216.239-306.525-202.328-311.77ZM-86.8-346.406l-1.2.3-1.111.281q-4.529-1.432-9.1-2.852,10.582-3.545,21.2-7.035Q-81.933-351.084-86.8-346.406Zm40.142-9.993q-16.447,4.05-32.886,8.169,5.4-5.134,10.852-10.2,17.97-5.864,35.994-11.58Q-39.72-363.27-46.663-356.4Zm37.221-9.11q-15.091,3.676-30.207,7.384,7.426-7.281,14.936-14.42,16.23-5.122,32.445-10.134Q-.9-374.2-9.442-365.508Zm35.047-8.524-7.035,1.71-4.593,1.117-.072.017-16.519,4.017q8.986-9.066,18.075-17.892,14.949-4.6,29.839-9.119Q35.406-384.27,25.605-374.032ZM59-382.176q-13.32,3.262-26.707,6.517,10.21-10.575,20.529-20.8,13.979-4.229,27.868-8.386Q69.8-393.733,59-382.176Zm32.126-7.92q-12.733,3.165-25.546,6.308Q75.01-393.8,84.519-403.476q1.76-1.791,3.52-3.569,13.231-3.955,26.346-7.849-6.742,7-13.461,14.193Q96.016-395.447,91.125-390.1Zm31.147-7.819Q110-394.8,97.624-391.715q3-3.25,6-6.465,8.967-9.6,17.976-18.856,12.645-3.752,25.152-7.454Q134.485-411.542,122.272-397.916Zm30-7.721q-11.722,3.061-23.552,6.079,12.536-13.873,25.139-27.036l.27-.08h0l.038-.011.062-.018.074-.021q11.7-3.465,23.258-6.889Q164.9-420.017,152.269-405.637Zm27.093-7.184q-10.3,2.775-20.688,5.506,12.925-14.6,25.893-28.376,10.087-2.993,20.043-5.957Q191.975-427.647,179.362-412.821Zm25.756-7.06q-9.671,2.7-19.439,5.352,12.866-15.005,25.765-29.157,9.254-2.762,18.38-5.5Q217.459-434.945,205.119-419.881Zm-627.95,317.2q1.424-2.3,2.858-4.593-6.509,20.755-11.978,43.1-4.57,7.128-9.088,14.194C-435.441-68.255-429.42-85.85-422.832-102.677ZM-444.887-37.09q5.12-8.025,10.3-16.126-4.116,17.6-7.772,36.042-4.949,24.816-9.3,51.029-8.365,11.4-16.689,22.455c4.636-20.9,9.437-41.267,14.562-61.008Q-449.495-21.2-444.887-37.09ZM-470.244,64.965q8.607-11.375,17.261-23.077c-3.3,20.077-6.426,40.693-9.523,61.752q-10.124,10.8-20.258,21.082C-478.63,104.405-474.5,84.461-470.244,64.965Zm-13.864,66.379q10.328-10.411,20.667-21.323-2.6,17.8-5.209,35.994l0,.01h0l-.005.038q-.689,4.787-1.383,9.6-11.182,8.735-22.378,16.861l.522-2.588q.665-3.3,1.327-6.579l1.171-5.812.052-.255.008-.041,0-.02.019-.1Q-486.7,144.147-484.107,131.344Zm-9.393,46.547q11.337-8.187,22.7-16.947-.851,5.9-1.712,11.828-1.625,11.2-3.294,22.517-11.843,6.263-23.663,11.9Q-496.439,192.45-493.5,177.891Zm-6.9,33.84q11.927-5.668,23.929-11.915-1.924,12.965-3.931,26.064-12.242,3.792-24.405,6.988Q-502.575,222.259-500.405,211.731Zm-5.263,25.183q12.249-3.214,24.636-6.976-1.524,9.861-3.109,19.789c-8.309.99-16.581,1.777-24.784,2.416Q-507.277,244.509-505.668,236.914Zm-4.074,19c8.265-.632,16.607-1.414,24.993-2.4q-1.2,7.433-2.434,14.9c-8.373-.409-16.691-1-24.919-1.725Q-510.91,261.29-509.742,255.909Zm-3.165,14.418c8.286.734,16.669,1.335,25.114,1.752q-.918,5.5-1.86,11.008-9.938-1.972-19.721-4.23-2.348-1.7-4.676-3.4Q-513.475,272.889-512.907,270.327Zm11.222,14.033q5.676,1.23,11.406,2.368-.43,2.5-.867,5Q-496.455,288.066-501.685,284.359Zm-.728,10.446q5.034,1.759,10.12,3.452-.121.683-.242,1.367l-.154.864Q-497.58,297.672-502.413,294.806ZM-323.734-254.53q.057-1.269.119-2.526a195.548,195.548,0,0,1,18.895-12.913q12.74-5.669,25.779-11.2-1.1.923-2.2,1.847-18.341,9.7-35.86,19.611l-.1.058-.094.07Q-320.513-257.1-323.734-254.53Zm212.628-93.7.84-.284-.391-.118Zm6.846-2.312q16.772-5.646,33.641-11.152,9.081-8.434,18.289-16.68-22.7,8.9-45.248,18.16-4.95,4.326-9.857,8.7Q-105.845-351.026-104.26-350.54Zm42.05-13.888q17.767-5.762,35.571-11.381,11.283-10.714,22.715-21.076-19.248,7.187-38.505,14.653Q-52.383-373.446-62.211-364.428Zm43.646-13.924q16.058-5.044,32.092-9.981,12.839-12.453,25.821-24.381Q22.46-406.66,5.48-400.379-6.611-389.572-18.565-378.352Zm39.9-12.382q14.8-4.541,29.539-9,5.974-5.913,11.972-11.7,8-7.715,16.027-15.194-15.193,5.252-30.528,10.7-1.023.928-2.046,1.858Q33.768-402.657,21.337-390.734Zm37.136-11.294q13.853-4.179,27.608-8.289,14.7-14.825,29.48-28.781-13.925,4.658-28.026,9.492-11.079,10.184-22.123,20.835Q61.939-405.422,58.473-402.028Zm35.034-10.507q13.122-3.915,26.121-7.771,15.184-15.584,30.4-30.143-12.946,4.2-26.1,8.562Q108.712-427.7,93.507-412.535Zm33.409-9.933q12.549-3.721,24.954-7.392,15.434-16.1,30.85-31.034-12.17,3.831-24.568,7.821Q142.555-438.345,126.916-422.468Zm32.132-9.517q11.837-3.505,23.516-6.967,15.4-16.344,30.741-31.437-11.223,3.435-22.686,7.017Q174.884-448.323,159.049-431.984Zm30.594-9.068q9.95-2.955,19.766-5.882,14.8-16.21,29.524-31.2-8.884,2.653-17.947,5.407Q205.387-457.581,189.642-441.053ZM216.312-449q9.106-2.723,18.079-5.423,13.906-15.843,27.758-30.573-7.849,2.291-15.862,4.667Q231.373-465.324,216.312-449ZM-517.5,290.666q2.814,1.4,5.649,2.789-2.77-1.679-5.516-3.37Zm-3.214-2.513-.185.811q-3.506-1.765-6.975-3.549Q-524.308,286.795-520.711,288.153Zm4.32-2.327q10.429,3.888,21.1,7.527-7.912-5.481-15.64-11.062-2.219-.512-4.427-1.036Q-515.869,283.539-516.391,285.826Zm-2.556-5.431q-.431,1.913-.867,3.828-5.331-3.322-10.567-6.681Q-524.705,279-518.947,280.394Zm2.332-10.406q-.342,1.538-.686,3.077-2.446-1.805-4.87-3.617Q-519.4,269.727-516.615,269.988Zm3.032-13.8q-1.1,5.072-2.227,10.159-6.084-.566-12.1-1.22-4.978-3.775-9.851-7.566C-529.8,257.214-521.733,256.773-513.583,256.193Zm3.919-18.242q-1.534,7.224-3.1,14.48c-8.783.636-17.481,1.107-26.057,1.478q1.361-4.808,2.705-9.6,7.19-1.63,14.473-3.379Q-515.68,239.49-509.664,237.95Zm5.08-24.248q-2.083,10.07-4.225,20.213-6.877,1.782-13.7,3.421-6.269,1.512-12.475,2.924,2.059-7.369,4.083-14.7C-522.2,221.769-513.418,217.84-504.584,213.7Zm6.674-32.646q-2.83,13.979-5.74,28.125c-8.71,4.114-17.384,8.024-25.988,11.794q3.054-11.095,6.045-22.1Q-510.819,190.23-497.911,181.057Zm9.073-44.968q-2.043,10.108-4.1,20.328l-.024.118q-1.272,6.316-2.554,12.671-.365,1.808-.731,3.62l-.23,1.138-.355,1.755q-12.672,9.119-25.269,17.655,3.43-12.634,6.8-25.13h0l.435-1.611q.939-3.473,1.875-6.933Q-500.947,148.147-488.837,136.089Zm13.3-64.156q-6.082,28.237-11.972,57.584-11.818,11.89-23.6,23.23,7.39-27.288,14.758-53.794Q-485.979,85.63-475.534,71.933Zm23.707-98.128q-2.83,10.167-5.526,20.567c-5.779,22.261-11.146,45.313-16.327,69.014Q-483.716,76.639-493.687,89.5c8-28.293,16.187-55.817,24.935-82.393q2.334-7.088,4.722-14.084Q-457.971-16.539-451.827-26.195Zm18.8-59.787Q-441.211-63.1-448.286-38.63q-5.228,8.2-10.391,16.323c7.59-21.263,15.654-41.828,24.4-61.6l.377-.627.328-.547ZM-323.93-249.62q-.012.321-.023.644l-.013.383q12.4-8.622,25.413-17.166-8.357,4.579-16.525,9.2Q-319.594-253.176-323.93-249.62Zm211.535-103.4.821.248q1.729-1.546,3.464-3.087-2.876,1.2-5.747,2.4Zm12.846-10.378q-9.969,4.1-19.88,8.272-4.931-1.465-9.914-2.911,27.011-13.58,54.569-26.492Q-87.267-374.12-99.549-363.395Zm55.171-22.042q-22.3,8.657-44.485,17.671,13.576-11.67,27.408-22.953,24.345-11.227,48.8-21.832Q-28.622-399.325-44.378-385.437ZM3.541-403.6q-18.925,7.008-37.88,14.287Q-17.5-403.943-.4-417.828q19.881-8.5,39.649-16.522-7.238,6.007-14.462,12.184Q14.133-413.057,3.541-403.6Zm42.873-15.557Q29.8-413.247,13.071-407.113q7.042-6.2,14.115-12.246Q38.9-429.377,50.661-438.95q16.921-6.77,33.643-13.156Q65.346-436.293,46.414-419.158ZM85.605-432.85q-14.961,5.134-30.074,10.463,19.718-17.6,39.487-33.781Q109.86-461.75,124.461-467,105.08-450.722,85.605-432.85ZM122-445.139q-13.722,4.558-27.627,9.291,20.133-18.226,40.193-34.761,13.309-4.711,26.349-9.122Q141.564-463.336,122-445.139Zm34.219-11.194q-12.766,4.112-25.741,8.388,20.1-18.443,40.006-35,12.134-4.032,23.979-7.786Q175.494-474.5,156.224-456.333Zm32.469-10.306q-12.006,3.754-24.246,7.668,19.685-18.305,39.092-34.6,11.2-3.48,22.091-6.688Q207.342-484.442,188.693-466.639ZM219.054-476q-11.06,3.363-22.365,6.873,18.943-17.839,37.539-33.633,10.017-2.886,19.726-5.523Q236.7-493.106,219.054-476Zm25.28-7.6q-8.666,2.572-17.511,5.242,17.808-17.032,35.243-32.105,7.059-1.867,13.932-3.594Q260.327-499.652,244.334-483.6Zm22.839-6.7q-7.622,2.211-15.406,4.5C284.76-518.5,316.959-546.092,346.7-567.14q10.368-7.339,20.3-13.59C335.7-557.344,301.784-526.638,267.173-490.3ZM-481.093,13.121c10.041-24.179,20.542-47.78,31.776-70.734q-9.523,23.88-18.066,49.032Q-474.29,2.322-481.093,13.121Zm-8.063,19.771q8.346-13.313,16.836-26.759c-9.646,29.317-18.607,59.776-27.387,91.121q-13.163,16.906-26.2,33.331C-513.908,97.2-501.856,64.583-489.155,32.892ZM-529.8,141.442q13.667-17.211,27.486-34.841-7,25.214-13.965,51.123c-9.739,9.335-19.438,18.455-29.067,27.455l1.394-3.93.067-.19q3.13-8.831,6.242-17.6Q-533.713,152.4-529.8,141.442Zm-18.235,51.32c9.888-9.225,19.861-18.567,29.887-28.126l-.279,1.032-.427,1.579,0,.013-.021.078-.015.055q-3.917,14.491-7.9,29.163c-9.945,6.719-19.82,13.238-29.582,19.661Q-552.172,204.44-548.033,192.762Zm-10.414,29.262c9.936-6.532,20.007-13.157,30.163-19.984q-2.828,10.378-5.71,20.834c-9.846,4.275-19.6,8.386-29.214,12.43Q-560.814,228.65-558.447,222.025Zm-3,16.547c8.6-3.62,17.342-7.3,26.188-11.124q-1.9,6.855-3.824,13.74-7.614,1.712-15.111,3.323Q-557.856,241.539-561.445,238.572Zm10.945,8.92q5.113-1.11,10.287-2.264-1.2,4.26-2.407,8.531Q-546.6,250.625-550.5,247.491Zm-8.711,10.85q7.631-.227,15.438-.526-.749,2.635-1.5,5.275-4.35-.549-8.644-1.12Q-556.584,260.156-559.211,258.342Zm18.641,1.715q-.5,1.746-1,3.5,3.248.4,6.525.779Q-537.824,262.195-540.57,260.056Zm-6.514,6.534.774.1-.1.352Zm4,2.254-.1.345q1.448.961,2.906,1.92,10.66,2.875,21.637,5.555-5.39-3.969-10.671-7.968-6.7-.731-13.286-1.546l-.122.424-.276.96Zm-8.573,2.967q1.786.5,3.584,1l-.129.445Q-549.938,272.535-551.66,271.812Zm7.146,1.98-.257.886q4.2,1.73,8.465,3.439-2.765-1.792-5.5-3.589Q-543.162,274.16-544.514,273.791Zm216.647-514.559-.394.326.395-.367Zm3.763-3.1,0-.13,1.06-.74Zm61.933-40.618q-9.748,5.991-19.24,12.036-8.55,6.354-16.831,12.745-13.454,11.887-26.009,23.829-.082,6.8-.027,13.867C-305.436-242.915-284.564-263.839-262.171-284.485Zm136.44-79.491c20.553-10.262,41.377-20.247,62.3-29.9q24.2-19.728,48.874-38.069-10.408,5.065-20.823,10.291-24.9,12.5-49.666,25.831Q-105.64-380.287-125.73-363.975Zm75.893-36.119q23.732-10.766,47.508-20.928,4.041-3.28,8.089-6.514,22.964-18.344,46.023-35.1-23.906,10.478-48.17,21.965-7.34,5.291-14.672,10.728Q-30.546-415.488-49.837-400.094Zm60-26.225q19.374-8.154,38.6-15.851c18.462-15.018,36.948-29.175,55.242-42.309q-17.9,7.119-36.194,14.916C48.655-456.062,29.359-441.593,10.161-426.32Zm50.223-20.466q16.49-6.5,32.764-12.625c18.18-14.865,36.291-28.748,54.115-41.483Q133-495.753,118.357-490.1C99.224-476.782,79.815-462.28,60.384-446.786Zm43.66-16.694q14.465-5.358,28.679-10.394c17.39-14.318,34.642-27.605,51.552-39.7q-11.863,3.842-24.081,8.1C141.765-492.709,122.965-478.646,104.044-463.479Zm38.951-14q12.971-4.518,25.668-8.742c16.231-13.476,32.279-25.936,47.972-37.238q-10.173,2.912-20.686,6.183C178.638-505.269,160.911-491.944,142.995-477.482Zm35.379-11.945q11.825-3.862,23.358-7.45c14.787-12.4,29.375-23.853,43.626-34.255q-8.933,2.2-18.2,4.727C211.25-515.277,194.926-502.9,178.374-489.427Zm32.55-10.281q10.914-3.326,21.517-6.386a702.428,702.428,0,0,1,66.407-50.335A394.745,394.745,0,0,1,347.6-584.275q-.927-.054-1.868-.092c-19.939,7.442-41.991,18.9-65.442,33.81q-8.636,5.492-17.506,11.594,2.411-.521,4.8-1.017l.751,3.617q-6.642,1.379-13.513,2.969C240.519-523.237,225.838-511.969,210.924-499.708Zm30.214-8.866q9.733-2.742,19.159-5.242a680.76,680.76,0,0,1,59.645-46.349A391.937,391.937,0,0,1,365.4-587.323q-.615-.051-1.236-.092c-19.276,7.557-40.6,19.093-63.285,34.07A682.411,682.411,0,0,0,241.138-508.573Zm39.374-10.411.163.66a690.737,690.737,0,0,1,63.888-51.831q6.634-4.7,13.111-8.963a414.632,414.632,0,0,0-35.645,22,661.521,661.521,0,0,0-53.543,41.159Q274.571-517.524,280.512-518.984ZM-571.96,259.471q4.907.7,9.907,1.4-1.7-1.175-3.378-2.348-3.138.085-6.242.166Zm-3.683-.683-.053.145-.446-.064-.112-.065Zm2.165-5.941-.8,2.2-2.293.059-.606.016h-.073l-.135,0-.772.02-1.094.028-.8.021-2.23.058-1.193-.707q4.444-.96,8.96-1.921l.563-.12Zm4.433-1.383h0l.359-.077.052-.011q6.678-1.42,13.492-2.88,3.569,2.886,7.209,5.773-8.29.3-16.394.516Q-566.7,253.122-569.045,251.463Zm1.483-4.092q1.266-3.494,2.522-6.98,3.081,2.555,6.218,5.115Q-563.216,246.448-567.562,247.371Zm-1.978-5.391q-1.137,3.146-2.279,6.3l-1.313.28q-2.23-1.6-4.43-3.186Q-573.574,243.679-569.539,241.98Zm5.963-16.582q-1.569,4.383-3.15,8.777-2.247-1.884-4.463-3.763Q-567.4,227.91-563.577,225.4Zm9.685-27.172q-3.78,10.642-7.607,21.363-6.352,4.178-12.631,8.319-3.026-2.587-5.985-5.161,11.995-11.3,24.223-22.656l0,0h0l.055-.052.023-.021.009-.007,0,0h0Zm16.977-47.831q-2.1,5.9-4.207,11.83-3.148,8.865-6.311,17.792l-3.771,10.635q-3.444,3.214-6.875,6.41h0l-.007.007-.016.015q-12.513,11.665-24.817,23.217-1.5-1.314-2.982-2.625l5.35-11.64h0l.753-1.638c10.849-13.768,21.788-27.506,32.809-41.347h0l.2-.245.225-.282.272-.341.019-.024Q-541.6,156.289-536.915,150.4ZM-499.921,50.1c-11.346,29.152-22.246,59.031-33.145,89.509q-8.345,10.509-16.635,20.909h0q-11.828,14.856-23.537,29.612c13.581-29.531,27.017-58.615,40.67-87.324Q-516.436,76.56-499.921,50.1Zm27.907-67.59Q-479.674-.131-486.955,17.64q-2.775,6.756-5.506,13.57-12.521,19.971-24.761,39.709C-502.68,41.091-487.75,11.648-472.015-17.489Zm327.46-344.871q4.116,1.147,8.2,2.31,14.914-12.3,30.19-24.221Q-125.526-373.524-144.555-362.36Zm57.514-36.583C-108.108-387.59-129-375.824-149.51-363.73q-4.23-1.162-8.5-2.306,4.569-3.432,9.171-6.832c32.821-21.675,66.695-42.332,100.692-61.486,18.112-10.2,36.253-19.98,54.285-29.253q-19.2,12.2-38.413,25.328C-50.653-425.72-68.969-412.571-87.04-398.943ZM1.729-443.862q-19.349,9.167-38.761,18.9-14.089,7.07-28.148,14.414,17.407-12.672,34.991-24.686c24.565-16.785,49.247-32.514,73.624-46.915,18.976-9.1,37.716-17.575,56.051-25.335C67.509-488.967,34.563-467.515,1.729-443.862Zm64.277-28.945q-22.575,9.628-45.546,20.2a1094.867,1094.867,0,0,1,107.15-66.334q14.644-5.734,28.818-10.773A970.015,970.015,0,0,0,66.006-472.808Zm50.606-20.58q-16.861,6.513-34.12,13.654c32.565-22.184,64.558-41.419,94.817-56.877l1.2-.614q9.052-2.933,17.839-5.533l-.191.1A818.311,818.311,0,0,0,116.612-493.388ZM158.5-508.8q-13.406,4.675-27.179,9.82c22.824-15.35,45.166-28.933,66.583-40.421q8.1-4.345,16.008-8.282,6.482-1.713,12.781-3.217-4.966,2.661-10,5.489C197.929-534.868,178.428-522.584,158.5-508.8Zm35.8-11.839q-11.129,3.468-22.6,7.318c15.977-10.687,31.63-20.353,46.793-28.87q11.335-6.366,22.265-11.852,5.263-1.089,10.373-2.015-6.879,3.765-13.911,7.891C223.306-539.993,208.953-530.782,194.309-520.637Zm31.259-9.162q-9.536,2.608-19.391,5.544,16.788-11.25,32.925-20.723c25.525-14.975,49.549-26.4,71.237-33.634l.122,0a416.7,416.7,0,0,0-52.692,27.695Q242.019-541.288,225.568-529.8Zm27.707-7.027q-8.376,1.947-17.065,4.2,11.929-8.067,23.487-15.137c24.372-14.9,47.306-26.316,68.033-33.65q.563.007,1.122.019a404.487,404.487,0,0,0-50.543,27.725Q266.019-545.859,253.276-536.827ZM-619.243,255.365q14.694-19.432,29.638-38.48-3.347,7.279-6.715,14.6l-.768-.583-2.235,2.942,1.2.906Q-608.8,244.983-619.243,255.365Zm24.36-18.174q-1.533,3.327-3.072,6.66,3.128-2.132,6.283-4.257Q-593.287,238.39-594.883,237.192Zm7.371-16.011-2.821,6.131q2.353-2.233,4.716-4.464Q-586.569,222.013-587.512,221.18Zm-16.106,25.479.232.143-.524,1.134-.431.3-.76-.358-.866-.408,1.421-1.383ZM82-503.954q22.41-9.862,44.058-18.349,14.724-7.9,29.04-14.843c13.776-6.682,27.234-12.678,40.271-17.916-18.837,6.516-38.693,14.589-59.261,24.028C118.515-522.96,100.415-513.893,82-503.954ZM156.045-533.5q10.678-3.783,21.052-7.149c14.593-7.411,28.8-13.952,42.494-19.527a572.852,572.852,0,0,0-62.881,26.353Zm44.117-14.216q6.3-1.811,12.444-3.44,15.64-7.77,30.5-13.9A457.75,457.75,0,0,0,200.162-547.715Zm30.371-7.873q4.557-1.043,9.012-1.971,13.591-6.8,26.524-12.2C254.726-565.919,242.849-561.173,230.533-555.588Zm24.875-4.961.336,2.006q16.987-9.066,32.893-15.788a344.005,344.005,0,0,0-35.009,14.085Q254.52-560.4,255.408-560.549ZM-49.958-437.572c30.67-17.28,61.449-33.344,91.652-47.835a1025.312,1025.312,0,0,1,92.872-48.984q18.175-8.341,35.594-15.245C103.922-526.692,26.9-488.078-49.326-440.518q-20.085,12.532-40.023,25.847Q-69.733-426.433-49.958-437.572Zm-562.291,691.2.144.02.069-.049-.14-.044Zm3.059-3.01.973.3.371-.259-.471-.222-.468-.221Zm16.761-16.205q1.989,1.493,4.009,2.993,5.507-3.692,11.086-7.383-2.768-2.372-5.482-4.733Q-587.644,229.852-592.429,234.416Zm-6.723,16.249-.545-.255-.765-.358.589-.4.526-.361,1.391.85-.443.2Zm5.327-2.335q-1.094-.665-2.179-1.328,3.723-2.537,7.487-5.066,1.746,1.291,3.516,2.588Q-589.443,246.424-593.824,248.33Zm12.777-5.492q-2.121-1.547-4.21-3.087,5.392-3.608,10.858-7.218,2.93,2.491,5.919,4.993Q-574.814,240.191-581.047,242.838Zm-13.645,9.9.707.327.621-.138-.739-.447Zm4.742-2.065q.913.551,1.831,1.1,5.007-1.091,10.1-2.179-1.766-1.271-3.513-2.54Q-585.768,248.865-589.95,250.674ZM354.656-587.473l-1.024.449.016-.121.564-.184.215-.07Zm-633.17,847.72q-1.955-22.885-4.125-45.414a229.239,229.239,0,0,0,21.169-20.8c33.132-37,59.877-90.085,76.218-165.254C-156.342-84.59-83.728-206.231,2.172-311.5q8.916,3.037,17.7,6.008C-67.556-192.746-140.808-61.754-166.417,60.052l-.005.025,0,.024c-14.39,79.036-40.8,132.961-74.334,168.789A192.59,192.59,0,0,1-278.514,260.247Zm-273.136,7.727q-6.558-1.846-12.96-3.727,4.632.647,9.342,1.277Q-553.466,266.748-551.65,267.974Zm273.487-3.59q1.71,20.271,3.217,40.789A170.356,170.356,0,0,0-217.3,266.212c34.463-35.239,60.764-90.628,73.3-173.979l0-.018,0-.018c22.141-130.005,96.077-270.39,185.136-390.581q-8.726-2.879-17.566-5.86C-63.961-191.574-137.255-60.671-162.8,60.788c-14.477,79.5-41.113,134.14-75.267,170.628A195.985,195.985,0,0,1-278.163,264.384Zm5.854,80.055q-1.082-17.768-2.355-35.393A174.023,174.023,0,0,0-214.658,268.8c35.176-35.968,61.7-92.174,74.311-175.994C-118.268-36.812-44.31-177.074,44.841-297.166q8.743,2.87,17.379,5.618C-28.161-164.087-102.466-14.589-121.008,123.357l0,.011v.012C-131.7,211.051-157.9,267.9-193.284,302.554-216.2,325-243.076,338.223-272.309,344.439Zm.225,3.727c30.028-6.291,57.744-19.824,81.384-42.972,36.2-35.447,62.607-93.216,73.354-181.356C-98.858-13.682-24.543-163.03,65.92-290.379q8.455,2.663,16.821,5.183C-7.116-151.729-79.834,4.452-94.5,148.257v.011c-8.836,91.994-34.935,150.309-71.245,184.374-29.284,27.475-65.4,39.355-104.968,40.246Q-271.346,360.5-272.083,348.166Zm2.275,43.649q-.338-7.627-.717-15.237c40.228-.926,77.239-13.03,107.309-41.241,37.223-34.923,63.512-94.257,72.393-186.707C-76.2,5.27-3.481-150.743,86.448-284.086q8.514,2.53,16.947,4.885C15.033-140.495-55.1,20.932-65.862,169.381c-6.984,96.321-32.987,156.1-70.219,189.58C-171.982,391.248-218.669,399.39-269.809,391.815Z" transform="translate(228.262 198.443)" fill="#b0eacd" fill-rule="evenodd" opacity="0.28"/>
  </g>
</svg>
