<svg xmlns="http://www.w3.org/2000/svg" width="421.738" height="122" viewBox="0 0 421.738 122">
  <g id="Group_783" data-name="Group 783" transform="translate(19266.869 -4568)">
    <path id="Path_518" data-name="Path 518" d="M24,98v24A24,24,0,0,1,0,98Z" transform="translate(-19266.869 4568)" fill="#21bf73"/>
    <path id="Path_511" data-name="Path 511" d="M138,97.807h14.761V75.171H165.17c16.057,0,25.4-9.58,25.4-23.523,0-13.875-9.17-23.659-25.023-23.659H138Zm14.761-34.466V40.057h9.955c8.523,0,12.648,4.636,12.648,11.591,0,6.92-4.125,11.693-12.58,11.693Z" transform="translate(-19266.869 4568)" fill="#2d394f"/>
    <path id="Path_512" data-name="Path 512" d="M214.406,27.989H199.884V97.807h14.522Z" transform="translate(-19266.869 4568)" fill="#2d394f"/>
    <path id="Path_513" data-name="Path 513" d="M240.972,98.8c7.738,0,12.75-3.375,15.306-8.25h.41v7.261H270.46V62.489c0-12.477-10.568-17.727-22.227-17.727-12.545,0-20.795,6-22.807,15.545L238.858,61.4c.989-3.477,4.091-6.034,9.307-6.034,4.943,0,7.773,2.489,7.773,6.784v.2c0,3.375-3.58,3.818-12.682,4.7-10.364.955-19.671,4.432-19.671,16.125C223.585,93.546,230.983,98.8,240.972,98.8Zm4.159-10.023c-4.466,0-7.671-2.079-7.671-6.068,0-4.091,3.375-6.1,8.489-6.818,3.17-.443,8.352-1.193,10.091-2.352v5.557C256.04,84.579,251.506,88.773,245.131,88.773Z" transform="translate(-19266.869 4568)" fill="#2d394f"/>
    <path id="Path_514" data-name="Path 514" d="M281.727,97.807H296.25V45.443H281.727Zm7.3-59.114A7.652,7.652,0,0,0,296.9,31.33a7.877,7.877,0,0,0-15.716,0A7.642,7.642,0,0,0,289.023,38.693Z" transform="translate(-19266.869 4568)" fill="#2d394f"/>
    <path id="Path_515" data-name="Path 515" d="M322.406,67.534c.034-6.75,4.057-10.7,9.921-10.7,5.829,0,9.341,3.818,9.307,10.227v30.75h14.522V64.466c0-12.2-7.159-19.7-18.068-19.7-7.773,0-13.4,3.818-15.75,9.92h-.614V45.443h-13.84V97.807h14.522Z" transform="translate(-19266.869 4568)" fill="#2d394f"/>
    <path id="Path_516" data-name="Path 516" d="M367.875,97.807H397.7c15.681,0,24.034-8.182,24.034-19.3,0-10.33-7.4-16.568-15.341-16.943v-.682c7.261-1.636,12.613-6.784,12.613-15,0-10.466-7.772-17.9-23.181-17.9H367.875Zm14.761-12.068V67.193h12.375c7.091,0,11.489,4.091,11.489,9.852,0,5.25-3.58,8.693-11.83,8.693Zm0-28.534V39.921h11.216c6.546,0,10.262,3.375,10.262,8.42,0,5.523-4.5,8.864-10.534,8.864Z" transform="translate(-19266.869 4568)" fill="#2d394f"/>
    <path id="Path_517" data-name="Path 517" d="M24,98V74H58A24,24,0,0,0,82,50V48A24,24,0,0,0,58,24H48A24,24,0,0,0,24,48V74H0V48A48,48,0,0,1,48,0H58a48,48,0,0,1,48,48v2A48,48,0,0,1,58,98Z" transform="translate(-19266.869 4568)" fill="#21bf73"/>
    <path id="Path_519" data-name="Path 519" d="M37,61V52.5A15.5,15.5,0,0,1,52.5,37H56a12,12,0,0,1,0,24Z" transform="translate(-19266.869 4568)" fill="#21bf73"/>
  </g>
</svg>
